<svg xmlns="http://www.w3.org/2000/svg" xmlns:xlink="http://www.w3.org/1999/xlink" viewBox="0 0 128 128"><filter id="box-shadow" filterUnits="userSpaceOnUse"><feMorphology operator="dilate" radius="2" in="SourceAlpha"></feMorphology><feGaussianBlur stdDeviation="4" result="Shadow"></feGaussianBlur><feFlood flood-color="#000000" flood-opacity="0.5"></feFlood><feComposite in2="Shadow" operator="in"></feComposite><feMerge><feMergeNode></feMergeNode><feMergeNode in="SourceGraphic"></feMergeNode></feMerge></filter><rect x="9.600000000000001" y="19.200000000000003" width="108.8" height="89.6" rx="8" ry="8" fill="#282a36" filter="url(#box-shadow)"></rect><g transform="translate(14.600000000000001,24.200000000000003)"><circle cx="3" cy="3" r="3" fill="#ff5f58"></circle><circle cx="13" cy="3" r="3" fill="#ffbd2e"></circle><circle cx="23" cy="3" r="3" fill="#18c132"></circle></g><svg viewBox="0 0 1 1" x="19.200000000000003" y="19.200000000000003" width="89.6" height="89.6"><path d="M0.4786 0.5307c-0.0464 0.0739 -0.1086 0.1366 -0.1821 0.1836c-0.0239 0.0148 -0.0539 0.0156 -0.0785 0.0021s-0.04 -0.0393 -0.0404 -0.0674s0.0145 -0.0542 0.0389 -0.0682c0.0381 -0.024 0.0719 -0.0541 0.1 -0.0893c-0.0288 -0.0343 -0.0625 -0.0641 -0.1 -0.0886c-0.0371 -0.0221 -0.0492 -0.0701 -0.0271 -0.1071s0.0701 -0.0492 0.1071 -0.0271c0.0734 0.0466 0.1356 0.1088 0.1821 0.1821c0.0147 0.0246 0.0147 0.0554 0 0.08zM0.7571 0.7143h-0.1929c-0.0357 0 -0.0643 -0.0182 -0.0643 -0.0536s0.0289 -0.0536 0.0643 -0.0536h0.1929c0.0357 0 0.0643 0.0182 0.0643 0.0536s-0.0289 0.0536 -0.0643 0.0536z" fill="#fff"></path></svg></svg>